<?xml version="1.0" encoding="UTF-8" standalone="no"?>
<!DOCTYPE svg PUBLIC "-//W3C//DTD SVG 1.1//EN"
 "http://www.w3.org/Graphics/SVG/1.1/DTD/svg11.dtd">
<!-- Generated by graphviz version 2.38.0 (20140413.2041)
 -->
<!-- Title: snakemake_dag Pages: 1 -->
<svg width="2308pt" height="265pt"
 viewBox="0.00 0.00 2308.00 265.00" xmlns="http://www.w3.org/2000/svg" xmlns:xlink="http://www.w3.org/1999/xlink">
<g id="graph0" class="graph" transform="scale(1 1) rotate(0) translate(4 261)">
<title>snakemake_dag</title>
<polygon fill="white" stroke="none" points="-4,4 -4,-261 2304,-261 2304,4 -4,4"/>
<!-- 0 -->
<g id="node1" class="node"><title>0</title>
<path fill="none" stroke="#d85656" stroke-width="2" d="M1165,-36C1165,-36 1135,-36 1135,-36 1129,-36 1123,-30 1123,-24 1123,-24 1123,-12 1123,-12 1123,-6 1129,-0 1135,-0 1135,-0 1165,-0 1165,-0 1171,-0 1177,-6 1177,-12 1177,-12 1177,-24 1177,-24 1177,-30 1171,-36 1165,-36"/>
<text text-anchor="middle" x="1150" y="-15.5" font-family="sans" font-size="10.00">all</text>
</g>
<!-- 1 -->
<g id="node2" class="node"><title>1</title>
<path fill="none" stroke="#d6d856" stroke-width="2" d="M92,-108C92,-108 12,-108 12,-108 6,-108 0,-102 0,-96 0,-96 0,-84 0,-84 0,-78 6,-72 12,-72 12,-72 92,-72 92,-72 98,-72 104,-78 104,-84 104,-84 104,-96 104,-96 104,-102 98,-108 92,-108"/>
<text text-anchor="middle" x="52" y="-93" font-family="sans" font-size="10.00">plot_eigenvectors</text>
<text text-anchor="middle" x="52" y="-82" font-family="sans" font-size="10.00">chrom: chr1</text>
</g>
<!-- 1&#45;&gt;0 -->
<g id="edge1" class="edge"><title>1&#45;&gt;0</title>
<path fill="none" stroke="grey" stroke-width="2" d="M104.074,-73.6727C107.08,-73.0427 110.07,-72.4771 113,-72 311.28,-39.7111 950.332,-23.472 1112.37,-19.8105"/>
<polygon fill="grey" stroke="grey" stroke-width="2" points="1112.86,-23.3006 1122.78,-19.578 1112.7,-16.3024 1112.86,-23.3006"/>
</g>
<!-- 2 -->
<g id="node3" class="node"><title>2</title>
<path fill="none" stroke="#d6d856" stroke-width="2" d="M214,-108C214,-108 134,-108 134,-108 128,-108 122,-102 122,-96 122,-96 122,-84 122,-84 122,-78 128,-72 134,-72 134,-72 214,-72 214,-72 220,-72 226,-78 226,-84 226,-84 226,-96 226,-96 226,-102 220,-108 214,-108"/>
<text text-anchor="middle" x="174" y="-93" font-family="sans" font-size="10.00">plot_eigenvectors</text>
<text text-anchor="middle" x="174" y="-82" font-family="sans" font-size="10.00">chrom: chr2</text>
</g>
<!-- 2&#45;&gt;0 -->
<g id="edge2" class="edge"><title>2&#45;&gt;0</title>
<path fill="none" stroke="grey" stroke-width="2" d="M226.078,-73.6966C229.083,-73.0605 232.072,-72.487 235,-72 408.404,-43.157 964.069,-24.6217 1112.99,-20.0866"/>
<polygon fill="grey" stroke="grey" stroke-width="2" points="1113.11,-23.5847 1122.99,-19.7843 1112.89,-16.5879 1113.11,-23.5847"/>
</g>
<!-- 3 -->
<g id="node4" class="node"><title>3</title>
<path fill="none" stroke="#d6d856" stroke-width="2" d="M336,-108C336,-108 256,-108 256,-108 250,-108 244,-102 244,-96 244,-96 244,-84 244,-84 244,-78 250,-72 256,-72 256,-72 336,-72 336,-72 342,-72 348,-78 348,-84 348,-84 348,-96 348,-96 348,-102 342,-108 336,-108"/>
<text text-anchor="middle" x="296" y="-93" font-family="sans" font-size="10.00">plot_eigenvectors</text>
<text text-anchor="middle" x="296" y="-82" font-family="sans" font-size="10.00">chrom: chr3</text>
</g>
<!-- 3&#45;&gt;0 -->
<g id="edge3" class="edge"><title>3&#45;&gt;0</title>
<path fill="none" stroke="grey" stroke-width="2" d="M348.084,-73.7278C351.087,-73.0837 354.074,-72.5 357,-72 644.563,-22.8557 998.041,-18.7361 1112.41,-18.7912"/>
<polygon fill="grey" stroke="grey" stroke-width="2" points="1112.71,-22.2916 1122.72,-18.8082 1112.72,-15.2916 1112.71,-22.2916"/>
</g>
<!-- 4 -->
<g id="node5" class="node"><title>4</title>
<path fill="none" stroke="#d6d856" stroke-width="2" d="M458,-108C458,-108 378,-108 378,-108 372,-108 366,-102 366,-96 366,-96 366,-84 366,-84 366,-78 372,-72 378,-72 378,-72 458,-72 458,-72 464,-72 470,-78 470,-84 470,-84 470,-96 470,-96 470,-102 464,-108 458,-108"/>
<text text-anchor="middle" x="418" y="-93" font-family="sans" font-size="10.00">plot_eigenvectors</text>
<text text-anchor="middle" x="418" y="-82" font-family="sans" font-size="10.00">chrom: chr4</text>
</g>
<!-- 4&#45;&gt;0 -->
<g id="edge4" class="edge"><title>4&#45;&gt;0</title>
<path fill="none" stroke="grey" stroke-width="2" d="M470.091,-73.7702C473.092,-73.1153 476.077,-72.5177 479,-72 717.934,-29.6787 1010.73,-21.1431 1112.81,-19.4286"/>
<polygon fill="grey" stroke="grey" stroke-width="2" points="1112.97,-22.9266 1122.92,-19.271 1112.86,-15.9274 1112.97,-22.9266"/>
</g>
<!-- 5 -->
<g id="node6" class="node"><title>5</title>
<path fill="none" stroke="#d6d856" stroke-width="2" d="M580,-108C580,-108 500,-108 500,-108 494,-108 488,-102 488,-96 488,-96 488,-84 488,-84 488,-78 494,-72 500,-72 500,-72 580,-72 580,-72 586,-72 592,-78 592,-84 592,-84 592,-96 592,-96 592,-102 586,-108 580,-108"/>
<text text-anchor="middle" x="540" y="-93" font-family="sans" font-size="10.00">plot_eigenvectors</text>
<text text-anchor="middle" x="540" y="-82" font-family="sans" font-size="10.00">chrom: chr5</text>
</g>
<!-- 5&#45;&gt;0 -->
<g id="edge5" class="edge"><title>5&#45;&gt;0</title>
<path fill="none" stroke="grey" stroke-width="2" d="M592.102,-73.8313C595.101,-73.1608 598.082,-72.5431 601,-72 791.422,-36.5583 1023.68,-24.0353 1112.77,-20.3401"/>
<polygon fill="grey" stroke="grey" stroke-width="2" points="1113.07,-23.8313 1122.92,-19.9323 1112.78,-16.837 1113.07,-23.8313"/>
</g>
<!-- 6 -->
<g id="node7" class="node"><title>6</title>
<path fill="none" stroke="#d6d856" stroke-width="2" d="M702,-108C702,-108 622,-108 622,-108 616,-108 610,-102 610,-96 610,-96 610,-84 610,-84 610,-78 616,-72 622,-72 622,-72 702,-72 702,-72 708,-72 714,-78 714,-84 714,-84 714,-96 714,-96 714,-102 708,-108 702,-108"/>
<text text-anchor="middle" x="662" y="-93" font-family="sans" font-size="10.00">plot_eigenvectors</text>
<text text-anchor="middle" x="662" y="-82" font-family="sans" font-size="10.00">chrom: chr6</text>
</g>
<!-- 6&#45;&gt;0 -->
<g id="edge6" class="edge"><title>6&#45;&gt;0</title>
<path fill="none" stroke="grey" stroke-width="2" d="M714.121,-73.9266C717.114,-73.2319 720.089,-72.5829 723,-72 865.419,-43.4799 1037.82,-27.7088 1112.5,-21.7729"/>
<polygon fill="grey" stroke="grey" stroke-width="2" points="1113.1,-25.2369 1122.8,-20.9681 1112.56,-18.2582 1113.1,-25.2369"/>
</g>
<!-- 7 -->
<g id="node8" class="node"><title>7</title>
<path fill="none" stroke="#d6d856" stroke-width="2" d="M824,-108C824,-108 744,-108 744,-108 738,-108 732,-102 732,-96 732,-96 732,-84 732,-84 732,-78 738,-72 744,-72 744,-72 824,-72 824,-72 830,-72 836,-78 836,-84 836,-84 836,-96 836,-96 836,-102 830,-108 824,-108"/>
<text text-anchor="middle" x="784" y="-93" font-family="sans" font-size="10.00">plot_eigenvectors</text>
<text text-anchor="middle" x="784" y="-82" font-family="sans" font-size="10.00">chrom: chr7</text>
</g>
<!-- 7&#45;&gt;0 -->
<g id="edge7" class="edge"><title>7&#45;&gt;0</title>
<path fill="none" stroke="grey" stroke-width="2" d="M836.157,-74.0958C839.141,-73.358 842.104,-72.6533 845,-72 940.749,-50.3954 1055.11,-32.6421 1112.8,-24.2408"/>
<polygon fill="grey" stroke="grey" stroke-width="2" points="1113.5,-27.6764 1122.89,-22.7821 1112.5,-20.7483 1113.5,-27.6764"/>
</g>
<!-- 8 -->
<g id="node9" class="node"><title>8</title>
<path fill="none" stroke="#d6d856" stroke-width="2" d="M946,-108C946,-108 866,-108 866,-108 860,-108 854,-102 854,-96 854,-96 854,-84 854,-84 854,-78 860,-72 866,-72 866,-72 946,-72 946,-72 952,-72 958,-78 958,-84 958,-84 958,-96 958,-96 958,-102 952,-108 946,-108"/>
<text text-anchor="middle" x="906" y="-93" font-family="sans" font-size="10.00">plot_eigenvectors</text>
<text text-anchor="middle" x="906" y="-82" font-family="sans" font-size="10.00">chrom: chr8</text>
</g>
<!-- 8&#45;&gt;0 -->
<g id="edge8" class="edge"><title>8&#45;&gt;0</title>
<path fill="none" stroke="grey" stroke-width="2" d="M958.045,-74.0691C1004.72,-60.6781 1072.03,-41.3671 1113.3,-29.53"/>
<polygon fill="grey" stroke="grey" stroke-width="2" points="1114.3,-32.8839 1122.94,-26.762 1112.37,-26.1554 1114.3,-32.8839"/>
</g>
<!-- 9 -->
<g id="node10" class="node"><title>9</title>
<path fill="none" stroke="#d6d856" stroke-width="2" d="M1068,-108C1068,-108 988,-108 988,-108 982,-108 976,-102 976,-96 976,-96 976,-84 976,-84 976,-78 982,-72 988,-72 988,-72 1068,-72 1068,-72 1074,-72 1080,-78 1080,-84 1080,-84 1080,-96 1080,-96 1080,-102 1074,-108 1068,-108"/>
<text text-anchor="middle" x="1028" y="-93" font-family="sans" font-size="10.00">plot_eigenvectors</text>
<text text-anchor="middle" x="1028" y="-82" font-family="sans" font-size="10.00">chrom: chr9</text>
</g>
<!-- 9&#45;&gt;0 -->
<g id="edge9" class="edge"><title>9&#45;&gt;0</title>
<path fill="none" stroke="grey" stroke-width="2" d="M1057.84,-71.8761C1074.78,-62.1563 1096.11,-49.9222 1113.97,-39.6706"/>
<polygon fill="grey" stroke="grey" stroke-width="2" points="1116.03,-42.5268 1122.96,-34.5142 1112.55,-36.4552 1116.03,-42.5268"/>
</g>
<!-- 10 -->
<g id="node11" class="node"><title>10</title>
<path fill="none" stroke="#d6d856" stroke-width="2" d="M1190,-108C1190,-108 1110,-108 1110,-108 1104,-108 1098,-102 1098,-96 1098,-96 1098,-84 1098,-84 1098,-78 1104,-72 1110,-72 1110,-72 1190,-72 1190,-72 1196,-72 1202,-78 1202,-84 1202,-84 1202,-96 1202,-96 1202,-102 1196,-108 1190,-108"/>
<text text-anchor="middle" x="1150" y="-93" font-family="sans" font-size="10.00">plot_eigenvectors</text>
<text text-anchor="middle" x="1150" y="-82" font-family="sans" font-size="10.00">chrom: chr10</text>
</g>
<!-- 10&#45;&gt;0 -->
<g id="edge10" class="edge"><title>10&#45;&gt;0</title>
<path fill="none" stroke="grey" stroke-width="2" d="M1150,-71.6966C1150,-63.9827 1150,-54.7125 1150,-46.1124"/>
<polygon fill="grey" stroke="grey" stroke-width="2" points="1153.5,-46.1043 1150,-36.1043 1146.5,-46.1044 1153.5,-46.1043"/>
</g>
<!-- 11 -->
<g id="node12" class="node"><title>11</title>
<path fill="none" stroke="#d6d856" stroke-width="2" d="M1312,-108C1312,-108 1232,-108 1232,-108 1226,-108 1220,-102 1220,-96 1220,-96 1220,-84 1220,-84 1220,-78 1226,-72 1232,-72 1232,-72 1312,-72 1312,-72 1318,-72 1324,-78 1324,-84 1324,-84 1324,-96 1324,-96 1324,-102 1318,-108 1312,-108"/>
<text text-anchor="middle" x="1272" y="-93" font-family="sans" font-size="10.00">plot_eigenvectors</text>
<text text-anchor="middle" x="1272" y="-82" font-family="sans" font-size="10.00">chrom: chr11</text>
</g>
<!-- 11&#45;&gt;0 -->
<g id="edge11" class="edge"><title>11&#45;&gt;0</title>
<path fill="none" stroke="grey" stroke-width="2" d="M1242.16,-71.8761C1225.22,-62.1563 1203.89,-49.9222 1186.03,-39.6706"/>
<polygon fill="grey" stroke="grey" stroke-width="2" points="1187.45,-36.4552 1177.04,-34.5142 1183.97,-42.5268 1187.45,-36.4552"/>
</g>
<!-- 12 -->
<g id="node13" class="node"><title>12</title>
<path fill="none" stroke="#d6d856" stroke-width="2" d="M1434,-108C1434,-108 1354,-108 1354,-108 1348,-108 1342,-102 1342,-96 1342,-96 1342,-84 1342,-84 1342,-78 1348,-72 1354,-72 1354,-72 1434,-72 1434,-72 1440,-72 1446,-78 1446,-84 1446,-84 1446,-96 1446,-96 1446,-102 1440,-108 1434,-108"/>
<text text-anchor="middle" x="1394" y="-93" font-family="sans" font-size="10.00">plot_eigenvectors</text>
<text text-anchor="middle" x="1394" y="-82" font-family="sans" font-size="10.00">chrom: chr12</text>
</g>
<!-- 12&#45;&gt;0 -->
<g id="edge12" class="edge"><title>12&#45;&gt;0</title>
<path fill="none" stroke="grey" stroke-width="2" d="M1341.96,-74.0691C1295.28,-60.6781 1227.97,-41.3671 1186.7,-29.53"/>
<polygon fill="grey" stroke="grey" stroke-width="2" points="1187.63,-26.1554 1177.06,-26.762 1185.7,-32.8839 1187.63,-26.1554"/>
</g>
<!-- 13 -->
<g id="node14" class="node"><title>13</title>
<path fill="none" stroke="#d6d856" stroke-width="2" d="M1556,-108C1556,-108 1476,-108 1476,-108 1470,-108 1464,-102 1464,-96 1464,-96 1464,-84 1464,-84 1464,-78 1470,-72 1476,-72 1476,-72 1556,-72 1556,-72 1562,-72 1568,-78 1568,-84 1568,-84 1568,-96 1568,-96 1568,-102 1562,-108 1556,-108"/>
<text text-anchor="middle" x="1516" y="-93" font-family="sans" font-size="10.00">plot_eigenvectors</text>
<text text-anchor="middle" x="1516" y="-82" font-family="sans" font-size="10.00">chrom: chr13</text>
</g>
<!-- 13&#45;&gt;0 -->
<g id="edge13" class="edge"><title>13&#45;&gt;0</title>
<path fill="none" stroke="grey" stroke-width="2" d="M1463.84,-74.0958C1460.86,-73.358 1457.9,-72.6533 1455,-72 1359.25,-50.3954 1244.89,-32.6421 1187.2,-24.2408"/>
<polygon fill="grey" stroke="grey" stroke-width="2" points="1187.5,-20.7483 1177.11,-22.7821 1186.5,-27.6764 1187.5,-20.7483"/>
</g>
<!-- 14 -->
<g id="node15" class="node"><title>14</title>
<path fill="none" stroke="#d6d856" stroke-width="2" d="M1678,-108C1678,-108 1598,-108 1598,-108 1592,-108 1586,-102 1586,-96 1586,-96 1586,-84 1586,-84 1586,-78 1592,-72 1598,-72 1598,-72 1678,-72 1678,-72 1684,-72 1690,-78 1690,-84 1690,-84 1690,-96 1690,-96 1690,-102 1684,-108 1678,-108"/>
<text text-anchor="middle" x="1638" y="-93" font-family="sans" font-size="10.00">plot_eigenvectors</text>
<text text-anchor="middle" x="1638" y="-82" font-family="sans" font-size="10.00">chrom: chr14</text>
</g>
<!-- 14&#45;&gt;0 -->
<g id="edge14" class="edge"><title>14&#45;&gt;0</title>
<path fill="none" stroke="grey" stroke-width="2" d="M1585.88,-73.9266C1582.89,-73.2319 1579.91,-72.5829 1577,-72 1434.58,-43.4799 1262.18,-27.7088 1187.5,-21.7729"/>
<polygon fill="grey" stroke="grey" stroke-width="2" points="1187.44,-18.2582 1177.2,-20.9681 1186.9,-25.2369 1187.44,-18.2582"/>
</g>
<!-- 15 -->
<g id="node16" class="node"><title>15</title>
<path fill="none" stroke="#d6d856" stroke-width="2" d="M1800,-108C1800,-108 1720,-108 1720,-108 1714,-108 1708,-102 1708,-96 1708,-96 1708,-84 1708,-84 1708,-78 1714,-72 1720,-72 1720,-72 1800,-72 1800,-72 1806,-72 1812,-78 1812,-84 1812,-84 1812,-96 1812,-96 1812,-102 1806,-108 1800,-108"/>
<text text-anchor="middle" x="1760" y="-93" font-family="sans" font-size="10.00">plot_eigenvectors</text>
<text text-anchor="middle" x="1760" y="-82" font-family="sans" font-size="10.00">chrom: chr15</text>
</g>
<!-- 15&#45;&gt;0 -->
<g id="edge15" class="edge"><title>15&#45;&gt;0</title>
<path fill="none" stroke="grey" stroke-width="2" d="M1707.9,-73.8313C1704.9,-73.1608 1701.92,-72.5431 1699,-72 1508.58,-36.5583 1276.32,-24.0353 1187.23,-20.3401"/>
<polygon fill="grey" stroke="grey" stroke-width="2" points="1187.22,-16.837 1177.08,-19.9323 1186.93,-23.8313 1187.22,-16.837"/>
</g>
<!-- 16 -->
<g id="node17" class="node"><title>16</title>
<path fill="none" stroke="#d6d856" stroke-width="2" d="M1922,-108C1922,-108 1842,-108 1842,-108 1836,-108 1830,-102 1830,-96 1830,-96 1830,-84 1830,-84 1830,-78 1836,-72 1842,-72 1842,-72 1922,-72 1922,-72 1928,-72 1934,-78 1934,-84 1934,-84 1934,-96 1934,-96 1934,-102 1928,-108 1922,-108"/>
<text text-anchor="middle" x="1882" y="-93" font-family="sans" font-size="10.00">plot_eigenvectors</text>
<text text-anchor="middle" x="1882" y="-82" font-family="sans" font-size="10.00">chrom: chr16</text>
</g>
<!-- 16&#45;&gt;0 -->
<g id="edge16" class="edge"><title>16&#45;&gt;0</title>
<path fill="none" stroke="grey" stroke-width="2" d="M1829.91,-73.7702C1826.91,-73.1153 1823.92,-72.5177 1821,-72 1582.07,-29.6787 1289.27,-21.1431 1187.19,-19.4286"/>
<polygon fill="grey" stroke="grey" stroke-width="2" points="1187.14,-15.9274 1177.08,-19.271 1187.03,-22.9266 1187.14,-15.9274"/>
</g>
<!-- 17 -->
<g id="node18" class="node"><title>17</title>
<path fill="none" stroke="#d6d856" stroke-width="2" d="M2044,-108C2044,-108 1964,-108 1964,-108 1958,-108 1952,-102 1952,-96 1952,-96 1952,-84 1952,-84 1952,-78 1958,-72 1964,-72 1964,-72 2044,-72 2044,-72 2050,-72 2056,-78 2056,-84 2056,-84 2056,-96 2056,-96 2056,-102 2050,-108 2044,-108"/>
<text text-anchor="middle" x="2004" y="-93" font-family="sans" font-size="10.00">plot_eigenvectors</text>
<text text-anchor="middle" x="2004" y="-82" font-family="sans" font-size="10.00">chrom: chr17</text>
</g>
<!-- 17&#45;&gt;0 -->
<g id="edge17" class="edge"><title>17&#45;&gt;0</title>
<path fill="none" stroke="grey" stroke-width="2" d="M1951.92,-73.7278C1948.91,-73.0837 1945.93,-72.5 1943,-72 1655.44,-22.8557 1301.96,-18.7361 1187.59,-18.7912"/>
<polygon fill="grey" stroke="grey" stroke-width="2" points="1187.28,-15.2916 1177.28,-18.8082 1187.29,-22.2916 1187.28,-15.2916"/>
</g>
<!-- 18 -->
<g id="node19" class="node"><title>18</title>
<path fill="none" stroke="#d6d856" stroke-width="2" d="M2166,-108C2166,-108 2086,-108 2086,-108 2080,-108 2074,-102 2074,-96 2074,-96 2074,-84 2074,-84 2074,-78 2080,-72 2086,-72 2086,-72 2166,-72 2166,-72 2172,-72 2178,-78 2178,-84 2178,-84 2178,-96 2178,-96 2178,-102 2172,-108 2166,-108"/>
<text text-anchor="middle" x="2126" y="-93" font-family="sans" font-size="10.00">plot_eigenvectors</text>
<text text-anchor="middle" x="2126" y="-82" font-family="sans" font-size="10.00">chrom: chr18</text>
</g>
<!-- 18&#45;&gt;0 -->
<g id="edge18" class="edge"><title>18&#45;&gt;0</title>
<path fill="none" stroke="grey" stroke-width="2" d="M2073.92,-73.6966C2070.92,-73.0605 2067.93,-72.487 2065,-72 1891.6,-43.157 1335.93,-24.6217 1187.01,-20.0866"/>
<polygon fill="grey" stroke="grey" stroke-width="2" points="1187.11,-16.5879 1177.01,-19.7843 1186.89,-23.5847 1187.11,-16.5879"/>
</g>
<!-- 19 -->
<g id="node20" class="node"><title>19</title>
<path fill="none" stroke="#d6d856" stroke-width="2" d="M2288,-108C2288,-108 2208,-108 2208,-108 2202,-108 2196,-102 2196,-96 2196,-96 2196,-84 2196,-84 2196,-78 2202,-72 2208,-72 2208,-72 2288,-72 2288,-72 2294,-72 2300,-78 2300,-84 2300,-84 2300,-96 2300,-96 2300,-102 2294,-108 2288,-108"/>
<text text-anchor="middle" x="2248" y="-93" font-family="sans" font-size="10.00">plot_eigenvectors</text>
<text text-anchor="middle" x="2248" y="-82" font-family="sans" font-size="10.00">chrom: chrX</text>
</g>
<!-- 19&#45;&gt;0 -->
<g id="edge19" class="edge"><title>19&#45;&gt;0</title>
<path fill="none" stroke="grey" stroke-width="2" d="M2195.93,-73.6727C2192.92,-73.0427 2189.93,-72.4771 2187,-72 1988.72,-39.7111 1349.67,-23.472 1187.63,-19.8105"/>
<polygon fill="grey" stroke="grey" stroke-width="2" points="1187.3,-16.3024 1177.22,-19.578 1187.14,-23.3006 1187.3,-16.3024"/>
</g>
<!-- 20 -->
<g id="node21" class="node"><title>20</title>
<path fill="none" stroke="#56d8d8" stroke-width="2" d="M1200.5,-180C1200.5,-180 1099.5,-180 1099.5,-180 1093.5,-180 1087.5,-174 1087.5,-168 1087.5,-168 1087.5,-156 1087.5,-156 1087.5,-150 1093.5,-144 1099.5,-144 1099.5,-144 1200.5,-144 1200.5,-144 1206.5,-144 1212.5,-150 1212.5,-156 1212.5,-156 1212.5,-168 1212.5,-168 1212.5,-174 1206.5,-180 1200.5,-180"/>
<text text-anchor="middle" x="1150" y="-159.5" font-family="sans" font-size="10.00">merge_compartments</text>
</g>
<!-- 20&#45;&gt;1 -->
<g id="edge20" class="edge"><title>20&#45;&gt;1</title>
<path fill="none" stroke="grey" stroke-width="2" d="M1087.41,-159.612C896.288,-155.093 321.208,-139.341 113.958,-107.885"/>
<polygon fill="grey" stroke="grey" stroke-width="2" points="114.498,-104.427 104.074,-106.327 113.407,-111.342 114.498,-104.427"/>
</g>
<!-- 20&#45;&gt;2 -->
<g id="edge21" class="edge"><title>20&#45;&gt;2</title>
<path fill="none" stroke="grey" stroke-width="2" d="M1087.31,-159.117C912.044,-153.578 418.395,-136.048 236.081,-107.911"/>
<polygon fill="grey" stroke="grey" stroke-width="2" points="236.507,-104.434 226.078,-106.303 235.396,-111.346 236.507,-104.434"/>
</g>
<!-- 20&#45;&gt;3 -->
<g id="edge22" class="edge"><title>20&#45;&gt;3</title>
<path fill="none" stroke="grey" stroke-width="2" d="M1087.29,-161.156C954.221,-160.55 633.903,-154.124 358.281,-108"/>
<polygon fill="grey" stroke="grey" stroke-width="2" points="358.528,-104.492 348.084,-106.272 357.358,-111.394 358.528,-104.492"/>
</g>
<!-- 20&#45;&gt;4 -->
<g id="edge23" class="edge"><title>20&#45;&gt;4</title>
<path fill="none" stroke="grey" stroke-width="2" d="M1087.05,-160.066C969.345,-157.444 708.014,-147.48 480.227,-108.01"/>
<polygon fill="grey" stroke="grey" stroke-width="2" points="480.546,-104.512 470.091,-106.23 479.335,-111.407 480.546,-104.512"/>
</g>
<!-- 20&#45;&gt;5 -->
<g id="edge24" class="edge"><title>20&#45;&gt;5</title>
<path fill="none" stroke="grey" stroke-width="2" d="M1087.34,-158.531C986.725,-153.781 782.927,-140.934 602.061,-108.007"/>
<polygon fill="grey" stroke="grey" stroke-width="2" points="602.571,-104.542 592.102,-106.169 601.301,-111.426 602.571,-104.542"/>
</g>
<!-- 20&#45;&gt;6 -->
<g id="edge25" class="edge"><title>20&#45;&gt;6</title>
<path fill="none" stroke="grey" stroke-width="2" d="M1087.3,-156.149C1005.69,-149.185 858.585,-134.413 724.186,-108.073"/>
<polygon fill="grey" stroke="grey" stroke-width="2" points="724.611,-104.589 714.121,-106.073 723.247,-111.455 724.611,-104.589"/>
</g>
<!-- 20&#45;&gt;7 -->
<g id="edge26" class="edge"><title>20&#45;&gt;7</title>
<path fill="none" stroke="grey" stroke-width="2" d="M1087.43,-151.996C1027.76,-142.987 935.212,-127.918 846.155,-108.147"/>
<polygon fill="grey" stroke="grey" stroke-width="2" points="846.68,-104.678 836.157,-105.904 845.148,-111.508 846.68,-104.678"/>
</g>
<!-- 20&#45;&gt;8 -->
<g id="edge27" class="edge"><title>20&#45;&gt;8</title>
<path fill="none" stroke="grey" stroke-width="2" d="M1090.62,-143.966C1053.46,-133.304 1005.66,-119.59 968.006,-108.789"/>
<polygon fill="grey" stroke="grey" stroke-width="2" points="968.748,-105.36 958.17,-105.967 966.818,-112.089 968.748,-105.36"/>
</g>
<!-- 20&#45;&gt;9 -->
<g id="edge28" class="edge"><title>20&#45;&gt;9</title>
<path fill="none" stroke="grey" stroke-width="2" d="M1120.16,-143.876C1104.06,-134.639 1084,-123.131 1066.71,-113.212"/>
<polygon fill="grey" stroke="grey" stroke-width="2" points="1068.37,-110.131 1057.96,-108.19 1064.89,-116.202 1068.37,-110.131"/>
</g>
<!-- 20&#45;&gt;10 -->
<g id="edge29" class="edge"><title>20&#45;&gt;10</title>
<path fill="none" stroke="grey" stroke-width="2" d="M1150,-143.697C1150,-135.983 1150,-126.712 1150,-118.112"/>
<polygon fill="grey" stroke="grey" stroke-width="2" points="1153.5,-118.104 1150,-108.104 1146.5,-118.104 1153.5,-118.104"/>
</g>
<!-- 20&#45;&gt;11 -->
<g id="edge30" class="edge"><title>20&#45;&gt;11</title>
<path fill="none" stroke="grey" stroke-width="2" d="M1179.84,-143.876C1195.94,-134.639 1216,-123.131 1233.29,-113.212"/>
<polygon fill="grey" stroke="grey" stroke-width="2" points="1235.11,-116.202 1242.04,-108.19 1231.63,-110.131 1235.11,-116.202"/>
</g>
<!-- 20&#45;&gt;12 -->
<g id="edge31" class="edge"><title>20&#45;&gt;12</title>
<path fill="none" stroke="grey" stroke-width="2" d="M1209.38,-143.966C1246.54,-133.304 1294.34,-119.59 1331.99,-108.789"/>
<polygon fill="grey" stroke="grey" stroke-width="2" points="1333.18,-112.089 1341.83,-105.967 1331.25,-105.36 1333.18,-112.089"/>
</g>
<!-- 20&#45;&gt;13 -->
<g id="edge32" class="edge"><title>20&#45;&gt;13</title>
<path fill="none" stroke="grey" stroke-width="2" d="M1212.57,-151.996C1272.24,-142.987 1364.79,-127.918 1453.84,-108.147"/>
<polygon fill="grey" stroke="grey" stroke-width="2" points="1454.85,-111.508 1463.84,-105.904 1453.32,-104.678 1454.85,-111.508"/>
</g>
<!-- 20&#45;&gt;14 -->
<g id="edge33" class="edge"><title>20&#45;&gt;14</title>
<path fill="none" stroke="grey" stroke-width="2" d="M1212.7,-156.149C1294.31,-149.185 1441.41,-134.413 1575.81,-108.073"/>
<polygon fill="grey" stroke="grey" stroke-width="2" points="1576.75,-111.455 1585.88,-106.073 1575.39,-104.589 1576.75,-111.455"/>
</g>
<!-- 20&#45;&gt;15 -->
<g id="edge34" class="edge"><title>20&#45;&gt;15</title>
<path fill="none" stroke="grey" stroke-width="2" d="M1212.66,-158.531C1313.28,-153.781 1517.07,-140.934 1697.94,-108.007"/>
<polygon fill="grey" stroke="grey" stroke-width="2" points="1698.7,-111.426 1707.9,-106.169 1697.43,-104.542 1698.7,-111.426"/>
</g>
<!-- 20&#45;&gt;16 -->
<g id="edge35" class="edge"><title>20&#45;&gt;16</title>
<path fill="none" stroke="grey" stroke-width="2" d="M1212.95,-160.066C1330.66,-157.444 1591.99,-147.48 1819.77,-108.01"/>
<polygon fill="grey" stroke="grey" stroke-width="2" points="1820.67,-111.407 1829.91,-106.23 1819.45,-104.512 1820.67,-111.407"/>
</g>
<!-- 20&#45;&gt;17 -->
<g id="edge36" class="edge"><title>20&#45;&gt;17</title>
<path fill="none" stroke="grey" stroke-width="2" d="M1212.71,-161.156C1345.78,-160.55 1666.1,-154.124 1941.72,-108"/>
<polygon fill="grey" stroke="grey" stroke-width="2" points="1942.64,-111.394 1951.92,-106.272 1941.47,-104.492 1942.64,-111.394"/>
</g>
<!-- 20&#45;&gt;18 -->
<g id="edge37" class="edge"><title>20&#45;&gt;18</title>
<path fill="none" stroke="grey" stroke-width="2" d="M1212.69,-159.117C1387.96,-153.578 1881.61,-136.048 2063.92,-107.911"/>
<polygon fill="grey" stroke="grey" stroke-width="2" points="2064.6,-111.346 2073.92,-106.303 2063.49,-104.434 2064.6,-111.346"/>
</g>
<!-- 20&#45;&gt;19 -->
<g id="edge38" class="edge"><title>20&#45;&gt;19</title>
<path fill="none" stroke="grey" stroke-width="2" d="M1212.59,-159.612C1403.71,-155.093 1978.79,-139.341 2186.04,-107.885"/>
<polygon fill="grey" stroke="grey" stroke-width="2" points="2186.59,-111.342 2195.93,-106.327 2185.5,-104.427 2186.59,-111.342"/>
</g>
<!-- 21 -->
<g id="node22" class="node"><title>21</title>
<path fill="none" stroke="#59d856" stroke-width="2" stroke-dasharray="5,2" d="M821.5,-257C821.5,-257 740.5,-257 740.5,-257 734.5,-257 728.5,-251 728.5,-245 728.5,-245 728.5,-228 728.5,-228 728.5,-222 734.5,-216 740.5,-216 740.5,-216 821.5,-216 821.5,-216 827.5,-216 833.5,-222 833.5,-228 833.5,-228 833.5,-245 833.5,-245 833.5,-251 827.5,-257 821.5,-257"/>
<text text-anchor="middle" x="781" y="-245" font-family="sans" font-size="10.00">call_compartment</text>
<text text-anchor="middle" x="781" y="-234" font-family="sans" font-size="10.00">libtype: HiC</text>
<text text-anchor="middle" x="781" y="-223" font-family="sans" font-size="10.00">sample: AT409</text>
</g>
<!-- 21&#45;&gt;20 -->
<g id="edge39" class="edge"><title>21&#45;&gt;20</title>
<path fill="none" stroke="grey" stroke-width="2" d="M833.773,-218.135C836.546,-217.378 839.3,-216.66 842,-216 921.505,-196.552 1014.26,-181.62 1077.04,-172.636"/>
<polygon fill="grey" stroke="grey" stroke-width="2" points="1077.83,-176.059 1087.24,-171.191 1076.85,-169.128 1077.83,-176.059"/>
</g>
<!-- 22 -->
<g id="node23" class="node"><title>22</title>
<path fill="none" stroke="#59d856" stroke-width="2" stroke-dasharray="5,2" d="M944.5,-257C944.5,-257 863.5,-257 863.5,-257 857.5,-257 851.5,-251 851.5,-245 851.5,-245 851.5,-228 851.5,-228 851.5,-222 857.5,-216 863.5,-216 863.5,-216 944.5,-216 944.5,-216 950.5,-216 956.5,-222 956.5,-228 956.5,-228 956.5,-245 956.5,-245 956.5,-251 950.5,-257 944.5,-257"/>
<text text-anchor="middle" x="904" y="-245" font-family="sans" font-size="10.00">call_compartment</text>
<text text-anchor="middle" x="904" y="-234" font-family="sans" font-size="10.00">libtype: HiC</text>
<text text-anchor="middle" x="904" y="-223" font-family="sans" font-size="10.00">sample: AT410</text>
</g>
<!-- 22&#45;&gt;20 -->
<g id="edge40" class="edge"><title>22&#45;&gt;20</title>
<path fill="none" stroke="grey" stroke-width="2" d="M956.541,-218.592C959.4,-217.707 962.233,-216.838 965,-216 1002.4,-204.669 1044.24,-192.629 1078.65,-182.893"/>
<polygon fill="grey" stroke="grey" stroke-width="2" points="1079.94,-186.166 1088.62,-180.08 1078.04,-179.429 1079.94,-186.166"/>
</g>
<!-- 23 -->
<g id="node24" class="node"><title>23</title>
<path fill="none" stroke="#59d856" stroke-width="2" stroke-dasharray="5,2" d="M1067.5,-257C1067.5,-257 986.5,-257 986.5,-257 980.5,-257 974.5,-251 974.5,-245 974.5,-245 974.5,-228 974.5,-228 974.5,-222 980.5,-216 986.5,-216 986.5,-216 1067.5,-216 1067.5,-216 1073.5,-216 1079.5,-222 1079.5,-228 1079.5,-228 1079.5,-245 1079.5,-245 1079.5,-251 1073.5,-257 1067.5,-257"/>
<text text-anchor="middle" x="1027" y="-245" font-family="sans" font-size="10.00">call_compartment</text>
<text text-anchor="middle" x="1027" y="-234" font-family="sans" font-size="10.00">libtype: HiC</text>
<text text-anchor="middle" x="1027" y="-223" font-family="sans" font-size="10.00">sample: AT411</text>
</g>
<!-- 23&#45;&gt;20 -->
<g id="edge41" class="edge"><title>23&#45;&gt;20</title>
<path fill="none" stroke="grey" stroke-width="2" d="M1060.29,-215.88C1076.25,-206.468 1095.46,-195.147 1112,-185.398"/>
<polygon fill="grey" stroke="grey" stroke-width="2" points="1114.04,-188.26 1120.88,-180.166 1110.48,-182.229 1114.04,-188.26"/>
</g>
<!-- 24 -->
<g id="node25" class="node"><title>24</title>
<path fill="none" stroke="#59d856" stroke-width="2" stroke-dasharray="5,2" d="M1190.5,-257C1190.5,-257 1109.5,-257 1109.5,-257 1103.5,-257 1097.5,-251 1097.5,-245 1097.5,-245 1097.5,-228 1097.5,-228 1097.5,-222 1103.5,-216 1109.5,-216 1109.5,-216 1190.5,-216 1190.5,-216 1196.5,-216 1202.5,-222 1202.5,-228 1202.5,-228 1202.5,-245 1202.5,-245 1202.5,-251 1196.5,-257 1190.5,-257"/>
<text text-anchor="middle" x="1150" y="-245" font-family="sans" font-size="10.00">call_compartment</text>
<text text-anchor="middle" x="1150" y="-234" font-family="sans" font-size="10.00">libtype: HiC</text>
<text text-anchor="middle" x="1150" y="-223" font-family="sans" font-size="10.00">sample: AT412</text>
</g>
<!-- 24&#45;&gt;20 -->
<g id="edge42" class="edge"><title>24&#45;&gt;20</title>
<path fill="none" stroke="grey" stroke-width="2" d="M1150,-215.689C1150,-207.907 1150,-198.842 1150,-190.447"/>
<polygon fill="grey" stroke="grey" stroke-width="2" points="1153.5,-190.319 1150,-180.319 1146.5,-190.32 1153.5,-190.319"/>
</g>
<!-- 25 -->
<g id="node26" class="node"><title>25</title>
<path fill="none" stroke="#59d856" stroke-width="2" stroke-dasharray="5,2" d="M1313.5,-257C1313.5,-257 1232.5,-257 1232.5,-257 1226.5,-257 1220.5,-251 1220.5,-245 1220.5,-245 1220.5,-228 1220.5,-228 1220.5,-222 1226.5,-216 1232.5,-216 1232.5,-216 1313.5,-216 1313.5,-216 1319.5,-216 1325.5,-222 1325.5,-228 1325.5,-228 1325.5,-245 1325.5,-245 1325.5,-251 1319.5,-257 1313.5,-257"/>
<text text-anchor="middle" x="1273" y="-245" font-family="sans" font-size="10.00">call_compartment</text>
<text text-anchor="middle" x="1273" y="-234" font-family="sans" font-size="10.00">libtype: HiC</text>
<text text-anchor="middle" x="1273" y="-223" font-family="sans" font-size="10.00">sample: AT415</text>
</g>
<!-- 25&#45;&gt;20 -->
<g id="edge43" class="edge"><title>25&#45;&gt;20</title>
<path fill="none" stroke="grey" stroke-width="2" d="M1239.71,-215.88C1223.75,-206.468 1204.54,-195.147 1188,-185.398"/>
<polygon fill="grey" stroke="grey" stroke-width="2" points="1189.52,-182.229 1179.12,-180.166 1185.96,-188.26 1189.52,-182.229"/>
</g>
<!-- 26 -->
<g id="node27" class="node"><title>26</title>
<path fill="none" stroke="#59d856" stroke-width="2" stroke-dasharray="5,2" d="M1436.5,-257C1436.5,-257 1355.5,-257 1355.5,-257 1349.5,-257 1343.5,-251 1343.5,-245 1343.5,-245 1343.5,-228 1343.5,-228 1343.5,-222 1349.5,-216 1355.5,-216 1355.5,-216 1436.5,-216 1436.5,-216 1442.5,-216 1448.5,-222 1448.5,-228 1448.5,-228 1448.5,-245 1448.5,-245 1448.5,-251 1442.5,-257 1436.5,-257"/>
<text text-anchor="middle" x="1396" y="-245" font-family="sans" font-size="10.00">call_compartment</text>
<text text-anchor="middle" x="1396" y="-234" font-family="sans" font-size="10.00">libtype: HiC</text>
<text text-anchor="middle" x="1396" y="-223" font-family="sans" font-size="10.00">sample: AT416</text>
</g>
<!-- 26&#45;&gt;20 -->
<g id="edge44" class="edge"><title>26&#45;&gt;20</title>
<path fill="none" stroke="grey" stroke-width="2" d="M1343.46,-218.592C1340.6,-217.707 1337.77,-216.838 1335,-216 1297.6,-204.669 1255.76,-192.629 1221.35,-182.893"/>
<polygon fill="grey" stroke="grey" stroke-width="2" points="1221.96,-179.429 1211.38,-180.08 1220.06,-186.166 1221.96,-179.429"/>
</g>
<!-- 27 -->
<g id="node28" class="node"><title>27</title>
<path fill="none" stroke="#59d856" stroke-width="2" stroke-dasharray="5,2" d="M1559.5,-257C1559.5,-257 1478.5,-257 1478.5,-257 1472.5,-257 1466.5,-251 1466.5,-245 1466.5,-245 1466.5,-228 1466.5,-228 1466.5,-222 1472.5,-216 1478.5,-216 1478.5,-216 1559.5,-216 1559.5,-216 1565.5,-216 1571.5,-222 1571.5,-228 1571.5,-228 1571.5,-245 1571.5,-245 1571.5,-251 1565.5,-257 1559.5,-257"/>
<text text-anchor="middle" x="1519" y="-245" font-family="sans" font-size="10.00">call_compartment</text>
<text text-anchor="middle" x="1519" y="-234" font-family="sans" font-size="10.00">libtype: HiC</text>
<text text-anchor="middle" x="1519" y="-223" font-family="sans" font-size="10.00">sample: AT417</text>
</g>
<!-- 27&#45;&gt;20 -->
<g id="edge45" class="edge"><title>27&#45;&gt;20</title>
<path fill="none" stroke="grey" stroke-width="2" d="M1466.23,-218.135C1463.45,-217.378 1460.7,-216.66 1458,-216 1378.49,-196.552 1285.74,-181.62 1222.96,-172.636"/>
<polygon fill="grey" stroke="grey" stroke-width="2" points="1223.15,-169.128 1212.76,-171.191 1222.17,-176.059 1223.15,-169.128"/>
</g>
</g>
</svg>
