<?xml version="1.0" encoding="UTF-8" standalone="no"?>
<!DOCTYPE svg PUBLIC "-//W3C//DTD SVG 1.1//EN"
 "http://www.w3.org/Graphics/SVG/1.1/DTD/svg11.dtd">
<!-- Generated by graphviz version 2.38.0 (20140413.2041)
 -->
<!-- Title: snakemake_dag Pages: 1 -->
<svg width="1492pt" height="260pt"
 viewBox="0.00 0.00 1491.50 260.00" xmlns="http://www.w3.org/2000/svg" xmlns:xlink="http://www.w3.org/1999/xlink">
<g id="graph0" class="graph" transform="scale(1 1) rotate(0) translate(4 256)">
<title>snakemake_dag</title>
<polygon fill="white" stroke="none" points="-4,4 -4,-256 1487.5,-256 1487.5,4 -4,4"/>
<!-- 0 -->
<g id="node1" class="node"><title>0</title>
<path fill="none" stroke="#56d8a9" stroke-width="2" d="M917.5,-36C917.5,-36 887.5,-36 887.5,-36 881.5,-36 875.5,-30 875.5,-24 875.5,-24 875.5,-12 875.5,-12 875.5,-6 881.5,-0 887.5,-0 887.5,-0 917.5,-0 917.5,-0 923.5,-0 929.5,-6 929.5,-12 929.5,-12 929.5,-24 929.5,-24 929.5,-30 923.5,-36 917.5,-36"/>
<text text-anchor="middle" x="902.5" y="-15.5" font-family="sans" font-size="10.00">all</text>
</g>
<!-- 1 -->
<g id="node2" class="node"><title>1</title>
<path fill="none" stroke="#d8ac56" stroke-width="2" d="M414,-108C414,-108 355,-108 355,-108 349,-108 343,-102 343,-96 343,-96 343,-84 343,-84 343,-78 349,-72 355,-72 355,-72 414,-72 414,-72 420,-72 426,-78 426,-84 426,-84 426,-96 426,-96 426,-102 420,-108 414,-108"/>
<text text-anchor="middle" x="384.5" y="-87.5" font-family="sans" font-size="10.00">plot_matrices</text>
</g>
<!-- 1&#45;&gt;0 -->
<g id="edge1" class="edge"><title>1&#45;&gt;0</title>
<path fill="none" stroke="grey" stroke-width="2" d="M426.014,-83.3899C524.492,-70.0822 771.01,-36.7689 865.154,-24.0468"/>
<polygon fill="grey" stroke="grey" stroke-width="2" points="865.901,-27.4777 875.343,-22.6699 864.964,-20.5407 865.901,-27.4777"/>
</g>
<!-- 2 -->
<g id="node3" class="node"><title>2</title>
<path fill="none" stroke="#afd856" stroke-width="2" d="M763,-108C763,-108 698,-108 698,-108 692,-108 686,-102 686,-96 686,-96 686,-84 686,-84 686,-78 692,-72 698,-72 698,-72 763,-72 763,-72 769,-72 775,-78 775,-84 775,-84 775,-96 775,-96 775,-102 769,-108 763,-108"/>
<text text-anchor="middle" x="730.5" y="-93" font-family="sans" font-size="10.00">filter</text>
<text text-anchor="middle" x="730.5" y="-82" font-family="sans" font-size="10.00">sample: AT409</text>
</g>
<!-- 2&#45;&gt;0 -->
<g id="edge2" class="edge"><title>2&#45;&gt;0</title>
<path fill="none" stroke="grey" stroke-width="2" d="M772.576,-71.8761C801.097,-60.2685 838.43,-45.0752 865.754,-33.9547"/>
<polygon fill="grey" stroke="grey" stroke-width="2" points="867.391,-37.0675 875.334,-30.0561 864.752,-30.5839 867.391,-37.0675"/>
</g>
<!-- 3 -->
<g id="node4" class="node"><title>3</title>
<path fill="none" stroke="#afd856" stroke-width="2" d="M935,-108C935,-108 870,-108 870,-108 864,-108 858,-102 858,-96 858,-96 858,-84 858,-84 858,-78 864,-72 870,-72 870,-72 935,-72 935,-72 941,-72 947,-78 947,-84 947,-84 947,-96 947,-96 947,-102 941,-108 935,-108"/>
<text text-anchor="middle" x="902.5" y="-93" font-family="sans" font-size="10.00">filter</text>
<text text-anchor="middle" x="902.5" y="-82" font-family="sans" font-size="10.00">sample: AT410</text>
</g>
<!-- 3&#45;&gt;0 -->
<g id="edge3" class="edge"><title>3&#45;&gt;0</title>
<path fill="none" stroke="grey" stroke-width="2" d="M902.5,-71.6966C902.5,-63.9827 902.5,-54.7125 902.5,-46.1124"/>
<polygon fill="grey" stroke="grey" stroke-width="2" points="906,-46.1043 902.5,-36.1043 899,-46.1044 906,-46.1043"/>
</g>
<!-- 4 -->
<g id="node5" class="node"><title>4</title>
<path fill="none" stroke="#afd856" stroke-width="2" d="M1106,-108C1106,-108 1041,-108 1041,-108 1035,-108 1029,-102 1029,-96 1029,-96 1029,-84 1029,-84 1029,-78 1035,-72 1041,-72 1041,-72 1106,-72 1106,-72 1112,-72 1118,-78 1118,-84 1118,-84 1118,-96 1118,-96 1118,-102 1112,-108 1106,-108"/>
<text text-anchor="middle" x="1073.5" y="-93" font-family="sans" font-size="10.00">filter</text>
<text text-anchor="middle" x="1073.5" y="-82" font-family="sans" font-size="10.00">sample: AT411</text>
</g>
<!-- 4&#45;&gt;0 -->
<g id="edge4" class="edge"><title>4&#45;&gt;0</title>
<path fill="none" stroke="grey" stroke-width="2" d="M1031.67,-71.8761C1003.31,-60.2685 966.198,-45.0752 939.032,-33.9547"/>
<polygon fill="grey" stroke="grey" stroke-width="2" points="940.089,-30.6055 929.508,-30.0561 937.437,-37.0837 940.089,-30.6055"/>
</g>
<!-- 5 -->
<g id="node6" class="node"><title>5</title>
<path fill="none" stroke="#afd856" stroke-width="2" d="M1342,-108C1342,-108 1277,-108 1277,-108 1271,-108 1265,-102 1265,-96 1265,-96 1265,-84 1265,-84 1265,-78 1271,-72 1277,-72 1277,-72 1342,-72 1342,-72 1348,-72 1354,-78 1354,-84 1354,-84 1354,-96 1354,-96 1354,-102 1348,-108 1342,-108"/>
<text text-anchor="middle" x="1309.5" y="-93" font-family="sans" font-size="10.00">filter</text>
<text text-anchor="middle" x="1309.5" y="-82" font-family="sans" font-size="10.00">sample: AT412</text>
</g>
<!-- 5&#45;&gt;0 -->
<g id="edge5" class="edge"><title>5&#45;&gt;0</title>
<path fill="none" stroke="grey" stroke-width="2" d="M1264.78,-81.3085C1183.82,-67.3842 1014.42,-38.2495 939.5,-25.3636"/>
<polygon fill="grey" stroke="grey" stroke-width="2" points="940.022,-21.9021 929.574,-23.6564 938.836,-28.8009 940.022,-21.9021"/>
</g>
<!-- 6 -->
<g id="node7" class="node"><title>6</title>
<path fill="none" stroke="#d85656" stroke-width="2" stroke-dasharray="5,2" d="M139,-180C139,-180 72,-180 72,-180 66,-180 60,-174 60,-168 60,-168 60,-156 60,-156 60,-150 66,-144 72,-144 72,-144 139,-144 139,-144 145,-144 151,-150 151,-156 151,-156 151,-168 151,-168 151,-174 145,-180 139,-180"/>
<text text-anchor="middle" x="105.5" y="-165" font-family="sans" font-size="10.00">multiresolution</text>
<text text-anchor="middle" x="105.5" y="-154" font-family="sans" font-size="10.00">sample: AT409</text>
</g>
<!-- 6&#45;&gt;1 -->
<g id="edge6" class="edge"><title>6&#45;&gt;1</title>
<path fill="none" stroke="grey" stroke-width="2" d="M151.259,-149.519C201.219,-136.985 281.035,-116.959 333.112,-103.893"/>
<polygon fill="grey" stroke="grey" stroke-width="2" points="333.973,-107.286 342.82,-101.457 332.269,-100.496 333.973,-107.286"/>
</g>
<!-- 7 -->
<g id="node8" class="node"><title>7</title>
<path fill="none" stroke="#d85656" stroke-width="2" stroke-dasharray="5,2" d="M282,-180C282,-180 215,-180 215,-180 209,-180 203,-174 203,-168 203,-168 203,-156 203,-156 203,-150 209,-144 215,-144 215,-144 282,-144 282,-144 288,-144 294,-150 294,-156 294,-156 294,-168 294,-168 294,-174 288,-180 282,-180"/>
<text text-anchor="middle" x="248.5" y="-165" font-family="sans" font-size="10.00">multiresolution</text>
<text text-anchor="middle" x="248.5" y="-154" font-family="sans" font-size="10.00">sample: AT410</text>
</g>
<!-- 7&#45;&gt;1 -->
<g id="edge7" class="edge"><title>7&#45;&gt;1</title>
<path fill="none" stroke="grey" stroke-width="2" d="M281.769,-143.876C299.963,-134.512 322.691,-122.814 342.14,-112.803"/>
<polygon fill="grey" stroke="grey" stroke-width="2" points="343.813,-115.878 351.103,-108.19 340.61,-109.654 343.813,-115.878"/>
</g>
<!-- 8 -->
<g id="node9" class="node"><title>8</title>
<path fill="none" stroke="#d85656" stroke-width="2" stroke-dasharray="5,2" d="M418,-180C418,-180 351,-180 351,-180 345,-180 339,-174 339,-168 339,-168 339,-156 339,-156 339,-150 345,-144 351,-144 351,-144 418,-144 418,-144 424,-144 430,-150 430,-156 430,-156 430,-168 430,-168 430,-174 424,-180 418,-180"/>
<text text-anchor="middle" x="384.5" y="-165" font-family="sans" font-size="10.00">multiresolution</text>
<text text-anchor="middle" x="384.5" y="-154" font-family="sans" font-size="10.00">sample: AT411</text>
</g>
<!-- 8&#45;&gt;1 -->
<g id="edge8" class="edge"><title>8&#45;&gt;1</title>
<path fill="none" stroke="grey" stroke-width="2" d="M384.5,-143.697C384.5,-135.983 384.5,-126.712 384.5,-118.112"/>
<polygon fill="grey" stroke="grey" stroke-width="2" points="388,-118.104 384.5,-108.104 381,-118.104 388,-118.104"/>
</g>
<!-- 9 -->
<g id="node10" class="node"><title>9</title>
<path fill="none" stroke="#d85656" stroke-width="2" stroke-dasharray="5,2" d="M527,-180C527,-180 460,-180 460,-180 454,-180 448,-174 448,-168 448,-168 448,-156 448,-156 448,-150 454,-144 460,-144 460,-144 527,-144 527,-144 533,-144 539,-150 539,-156 539,-156 539,-168 539,-168 539,-174 533,-180 527,-180"/>
<text text-anchor="middle" x="493.5" y="-165" font-family="sans" font-size="10.00">multiresolution</text>
<text text-anchor="middle" x="493.5" y="-154" font-family="sans" font-size="10.00">sample: AT412</text>
</g>
<!-- 9&#45;&gt;1 -->
<g id="edge9" class="edge"><title>9&#45;&gt;1</title>
<path fill="none" stroke="grey" stroke-width="2" d="M466.836,-143.876C452.716,-134.808 435.189,-123.552 419.939,-113.759"/>
<polygon fill="grey" stroke="grey" stroke-width="2" points="421.573,-110.648 411.267,-108.19 417.79,-116.538 421.573,-110.648"/>
</g>
<!-- 10 -->
<g id="node11" class="node"><title>10</title>
<path fill="none" stroke="#59d856" stroke-width="2" stroke-dasharray="5,2" d="M763.5,-180C763.5,-180 569.5,-180 569.5,-180 563.5,-180 557.5,-174 557.5,-168 557.5,-168 557.5,-156 557.5,-156 557.5,-150 563.5,-144 569.5,-144 569.5,-144 763.5,-144 763.5,-144 769.5,-144 775.5,-150 775.5,-156 775.5,-156 775.5,-168 775.5,-168 775.5,-174 769.5,-180 763.5,-180"/>
<text text-anchor="middle" x="666.5" y="-165" font-family="sans" font-size="10.00">matrix_from_hicstuff</text>
<text text-anchor="middle" x="666.5" y="-154" font-family="sans" font-size="10.00">sample: AT409/tmp/AT409.valid_idx.pairs</text>
</g>
<!-- 10&#45;&gt;2 -->
<g id="edge10" class="edge"><title>10&#45;&gt;2</title>
<path fill="none" stroke="grey" stroke-width="2" d="M682.32,-143.697C690.07,-135.22 699.539,-124.864 708.024,-115.583"/>
<polygon fill="grey" stroke="grey" stroke-width="2" points="710.697,-117.846 714.862,-108.104 705.531,-113.123 710.697,-117.846"/>
</g>
<!-- 11 -->
<g id="node12" class="node"><title>11</title>
<path fill="none" stroke="#59d856" stroke-width="2" stroke-dasharray="5,2" d="M999.5,-180C999.5,-180 805.5,-180 805.5,-180 799.5,-180 793.5,-174 793.5,-168 793.5,-168 793.5,-156 793.5,-156 793.5,-150 799.5,-144 805.5,-144 805.5,-144 999.5,-144 999.5,-144 1005.5,-144 1011.5,-150 1011.5,-156 1011.5,-156 1011.5,-168 1011.5,-168 1011.5,-174 1005.5,-180 999.5,-180"/>
<text text-anchor="middle" x="902.5" y="-165" font-family="sans" font-size="10.00">matrix_from_hicstuff</text>
<text text-anchor="middle" x="902.5" y="-154" font-family="sans" font-size="10.00">sample: AT410/tmp/AT410.valid_idx.pairs</text>
</g>
<!-- 11&#45;&gt;3 -->
<g id="edge11" class="edge"><title>11&#45;&gt;3</title>
<path fill="none" stroke="grey" stroke-width="2" d="M902.5,-143.697C902.5,-135.983 902.5,-126.712 902.5,-118.112"/>
<polygon fill="grey" stroke="grey" stroke-width="2" points="906,-118.104 902.5,-108.104 899,-118.104 906,-118.104"/>
</g>
<!-- 12 -->
<g id="node13" class="node"><title>12</title>
<path fill="none" stroke="#59d856" stroke-width="2" stroke-dasharray="5,2" d="M1235.5,-180C1235.5,-180 1041.5,-180 1041.5,-180 1035.5,-180 1029.5,-174 1029.5,-168 1029.5,-168 1029.5,-156 1029.5,-156 1029.5,-150 1035.5,-144 1041.5,-144 1041.5,-144 1235.5,-144 1235.5,-144 1241.5,-144 1247.5,-150 1247.5,-156 1247.5,-156 1247.5,-168 1247.5,-168 1247.5,-174 1241.5,-180 1235.5,-180"/>
<text text-anchor="middle" x="1138.5" y="-165" font-family="sans" font-size="10.00">matrix_from_hicstuff</text>
<text text-anchor="middle" x="1138.5" y="-154" font-family="sans" font-size="10.00">sample: AT411/tmp/AT411.valid_idx.pairs</text>
</g>
<!-- 12&#45;&gt;4 -->
<g id="edge12" class="edge"><title>12&#45;&gt;4</title>
<path fill="none" stroke="grey" stroke-width="2" d="M1122.43,-143.697C1114.56,-135.22 1104.94,-124.864 1096.33,-115.583"/>
<polygon fill="grey" stroke="grey" stroke-width="2" points="1098.75,-113.051 1089.38,-108.104 1093.62,-117.814 1098.75,-113.051"/>
</g>
<!-- 13 -->
<g id="node14" class="node"><title>13</title>
<path fill="none" stroke="#59d856" stroke-width="2" stroke-dasharray="5,2" d="M1471.5,-180C1471.5,-180 1277.5,-180 1277.5,-180 1271.5,-180 1265.5,-174 1265.5,-168 1265.5,-168 1265.5,-156 1265.5,-156 1265.5,-150 1271.5,-144 1277.5,-144 1277.5,-144 1471.5,-144 1471.5,-144 1477.5,-144 1483.5,-150 1483.5,-156 1483.5,-156 1483.5,-168 1483.5,-168 1483.5,-174 1477.5,-180 1471.5,-180"/>
<text text-anchor="middle" x="1374.5" y="-165" font-family="sans" font-size="10.00">matrix_from_hicstuff</text>
<text text-anchor="middle" x="1374.5" y="-154" font-family="sans" font-size="10.00">sample: AT412/tmp/AT412.valid_idx.pairs</text>
</g>
<!-- 13&#45;&gt;5 -->
<g id="edge13" class="edge"><title>13&#45;&gt;5</title>
<path fill="none" stroke="grey" stroke-width="2" d="M1358.43,-143.697C1350.56,-135.22 1340.94,-124.864 1332.33,-115.583"/>
<polygon fill="grey" stroke="grey" stroke-width="2" points="1334.75,-113.051 1325.38,-108.104 1329.62,-117.814 1334.75,-113.051"/>
</g>
<!-- 14 -->
<g id="node15" class="node"><title>14</title>
<path fill="none" stroke="#59d856" stroke-width="2" stroke-dasharray="5,2" d="M133,-252C133,-252 12,-252 12,-252 6,-252 0,-246 0,-240 0,-240 0,-228 0,-228 0,-222 6,-216 12,-216 12,-216 133,-216 133,-216 139,-216 145,-222 145,-228 145,-228 145,-240 145,-240 145,-246 139,-252 133,-252"/>
<text text-anchor="middle" x="72.5" y="-237" font-family="sans" font-size="10.00">matrix_from_hicstuff</text>
<text text-anchor="middle" x="72.5" y="-226" font-family="sans" font-size="10.00">sample: AT409/AT409.cool</text>
</g>
<!-- 14&#45;&gt;6 -->
<g id="edge14" class="edge"><title>14&#45;&gt;6</title>
<path fill="none" stroke="grey" stroke-width="2" d="M80.6573,-215.697C84.4138,-207.728 88.9531,-198.1 93.1183,-189.264"/>
<polygon fill="grey" stroke="grey" stroke-width="2" points="96.3381,-190.642 97.4365,-180.104 90.0064,-187.657 96.3381,-190.642"/>
</g>
<!-- 15 -->
<g id="node16" class="node"><title>15</title>
<path fill="none" stroke="#59d856" stroke-width="2" stroke-dasharray="5,2" d="M296,-252C296,-252 175,-252 175,-252 169,-252 163,-246 163,-240 163,-240 163,-228 163,-228 163,-222 169,-216 175,-216 175,-216 296,-216 296,-216 302,-216 308,-222 308,-228 308,-228 308,-240 308,-240 308,-246 302,-252 296,-252"/>
<text text-anchor="middle" x="235.5" y="-237" font-family="sans" font-size="10.00">matrix_from_hicstuff</text>
<text text-anchor="middle" x="235.5" y="-226" font-family="sans" font-size="10.00">sample: AT410/AT410.cool</text>
</g>
<!-- 15&#45;&gt;7 -->
<g id="edge15" class="edge"><title>15&#45;&gt;7</title>
<path fill="none" stroke="grey" stroke-width="2" d="M238.713,-215.697C240.146,-207.983 241.868,-198.712 243.465,-190.112"/>
<polygon fill="grey" stroke="grey" stroke-width="2" points="246.939,-190.575 245.323,-180.104 240.056,-189.297 246.939,-190.575"/>
</g>
<!-- 16 -->
<g id="node17" class="node"><title>16</title>
<path fill="none" stroke="#59d856" stroke-width="2" stroke-dasharray="5,2" d="M459,-252C459,-252 338,-252 338,-252 332,-252 326,-246 326,-240 326,-240 326,-228 326,-228 326,-222 332,-216 338,-216 338,-216 459,-216 459,-216 465,-216 471,-222 471,-228 471,-228 471,-240 471,-240 471,-246 465,-252 459,-252"/>
<text text-anchor="middle" x="398.5" y="-237" font-family="sans" font-size="10.00">matrix_from_hicstuff</text>
<text text-anchor="middle" x="398.5" y="-226" font-family="sans" font-size="10.00">sample: AT411/AT411.cool</text>
</g>
<!-- 16&#45;&gt;8 -->
<g id="edge16" class="edge"><title>16&#45;&gt;8</title>
<path fill="none" stroke="grey" stroke-width="2" d="M395.039,-215.697C393.497,-207.983 391.642,-198.712 389.922,-190.112"/>
<polygon fill="grey" stroke="grey" stroke-width="2" points="393.314,-189.224 387.921,-180.104 386.45,-190.597 393.314,-189.224"/>
</g>
<!-- 17 -->
<g id="node18" class="node"><title>17</title>
<path fill="none" stroke="#59d856" stroke-width="2" stroke-dasharray="5,2" d="M622,-252C622,-252 501,-252 501,-252 495,-252 489,-246 489,-240 489,-240 489,-228 489,-228 489,-222 495,-216 501,-216 501,-216 622,-216 622,-216 628,-216 634,-222 634,-228 634,-228 634,-240 634,-240 634,-246 628,-252 622,-252"/>
<text text-anchor="middle" x="561.5" y="-237" font-family="sans" font-size="10.00">matrix_from_hicstuff</text>
<text text-anchor="middle" x="561.5" y="-226" font-family="sans" font-size="10.00">sample: AT412/AT412.cool</text>
</g>
<!-- 17&#45;&gt;9 -->
<g id="edge17" class="edge"><title>17&#45;&gt;9</title>
<path fill="none" stroke="grey" stroke-width="2" d="M544.691,-215.697C536.374,-207.135 526.195,-196.656 517.11,-187.304"/>
<polygon fill="grey" stroke="grey" stroke-width="2" points="519.594,-184.838 510.116,-180.104 514.573,-189.716 519.594,-184.838"/>
</g>
</g>
</svg>
